<svg id="Layer_1" data-name="Layer 1" xmlns="http://www.w3.org/2000/svg" viewBox="0 0 587.26 96.06"><defs><style>.cls-1{fill:#e53b88;}.cls-2{fill:#6b3081;}.cls-3{fill:#f2f2f2;}</style></defs><title>new_vista_logo</title><path class="cls-1" d="M164.2,21.87a1.31,1.31,0,0,0,2.49,0L178.07,2.16C178.75,1,178.19,0,176.82,0H154.06c-1.37,0-1.93,1-1.24,2.16Z"/><path class="cls-1" d="M143.39,57.9a1.32,1.32,0,0,0,2.49,0l11.38-19.71a4.78,4.78,0,0,0,0-4.31L138.95,2.16A4.78,4.78,0,0,0,135.22,0H112.45c-1.37,0-1.93,1-1.24,2.16Z"/><path class="cls-1" d="M97.34,2.16A4.78,4.78,0,0,0,93.61,0H70.88c-1.37,0-1.93,1-1.25,2.16l53,91.75a1.32,1.32,0,0,0,2.49,0l11.37-19.69a4.79,4.79,0,0,0,0-4.31Z"/><path class="cls-2" d="M83.47,93.91c-.69,1.19-.12,2.15,1.24,2.15h22.76c1.37,0,1.93-1,1.24-2.15L97.34,74.2a1.32,1.32,0,0,0-2.49,0Z"/><path class="cls-2" d="M41.87,93.91c-.69,1.19-.12,2.15,1.24,2.15H65.87a4.78,4.78,0,0,0,3.73-2.15L87.92,62.18a4.79,4.79,0,0,0,0-4.31L76.54,38.16a1.32,1.32,0,0,0-2.49,0Z"/><path class="cls-2" d="M67.12,26.16a4.8,4.8,0,0,0,0-4.31L55.75,2.16a1.31,1.31,0,0,0-2.49,0L.29,93.91c-.69,1.19-.13,2.15,1.24,2.15H24.27A4.78,4.78,0,0,0,28,93.91Z"/><path class="cls-3" d="M229.09,47.09a2.22,2.22,0,0,1-1.59-.81L210.87,23.54c-.32-.44-.59-.36-.59.19V46.09a1,1,0,0,1-1,1h-6a1,1,0,0,1-1-1V10.74a1,1,0,0,1,1-1h6.18a2.23,2.23,0,0,1,1.59.8L227.22,32.4c.33.44.59.35.59-.2V10.74a1,1,0,0,1,1-1h6a1,1,0,0,1,1,1V46.09a1,1,0,0,1-1,1Z"/><path class="cls-3" d="M329.76,47.09a1.36,1.36,0,0,1-1.25-1l-6.05-23.71c-.14-.53-.36-.53-.49,0l-6,23.71a1.36,1.36,0,0,1-1.25,1h-6.46a1.41,1.41,0,0,1-1.28-1L296.84,10.7a.71.71,0,0,1,.72-1h6.9a1.34,1.34,0,0,1,1.24,1l6.08,25c.13.54.35.54.49,0l6.6-25.06a1.37,1.37,0,0,1,1.26-1h4.21a1.37,1.37,0,0,1,1.25,1l6.55,25.06c.14.53.36.53.49,0l6.08-25a1.34,1.34,0,0,1,1.24-1h6.9a.72.72,0,0,1,.73,1L337.49,46.13a1.41,1.41,0,0,1-1.27,1Z"/><path class="cls-3" d="M399.87,47.09a1.57,1.57,0,0,1-1.36-.93L384.84,10.67a.64.64,0,0,1,.64-.93h7a1.54,1.54,0,0,1,1.34.94l9.68,26.79c.19.52.49.52.68,0l9.68-26.79a1.53,1.53,0,0,1,1.34-.94h7a.64.64,0,0,1,.64.93L409.2,46.15a1.57,1.57,0,0,1-1.36.93Z"/><path class="cls-3" d="M440.91,47.09a1,1,0,0,1-1-1V10.74a1,1,0,0,1,1-1h6a1,1,0,0,1,1,1V46.09a1,1,0,0,1-1,1Z"/><path class="cls-3" d="M579.54,47.09a1.55,1.55,0,0,1-1.35-.94l-1.65-4.45a1.55,1.55,0,0,0-1.35-.94h-14a1.55,1.55,0,0,0-1.35.94l-1.65,4.45a1.55,1.55,0,0,1-1.35.94h-7a.64.64,0,0,1-.64-.93l13.67-35.48a1.57,1.57,0,0,1,1.36-.93h8a1.57,1.57,0,0,1,1.36.93L587.2,46.15a.64.64,0,0,1-.64.93Zm-11-28.46c-.19-.52-.49-.52-.68,0L562.7,32.82a.66.66,0,0,0,.66.94H573a.66.66,0,0,0,.66-.94Z"/><path class="cls-3" d="M544.21,10.6c.28-.48.05-.87-.5-.87H510.58c-.55,0-.78.39-.5.87l3,5.27a1.92,1.92,0,0,0,1.5.87h7.53a1,1,0,0,1,1,1V46.09a1,1,0,0,0,1,1h6a1,1,0,0,0,1-1V17.74a1,1,0,0,1,1-1h7.52a1.92,1.92,0,0,0,1.5-.87Z"/><path class="cls-3" d="M284.29,41c.28-.48,0-.87-.5-.87H266.31a1,1,0,0,1-1-1V32.58a1,1,0,0,1,1-1h5.91a1.92,1.92,0,0,0,1.5-.87l3-5.27c.28-.48,0-.87-.5-.87h-9.95a1,1,0,0,1-1-1V17.74a1,1,0,0,1,1-1h14.47a1.92,1.92,0,0,0,1.5-.87l3-5.27c.28-.48,0-.87-.5-.87H258.35a1,1,0,0,0-1,1V46.09a1,1,0,0,0,1,1h21.39a1.92,1.92,0,0,0,1.5-.87Z"/><path class="cls-3" d="M490.36,19.23a.9.9,0,0,1-1.32.29s-4.69-3.29-8.5-3.29c-3.36,0-5.26,1.46-5.26,3.7,0,5.88,21.45,1.9,21.45,15.85,0,6.83-4.93,12-15,12-7.58,0-14.55-4.88-14.55-4.88a1.11,1.11,0,0,1-.32-1.44l2.86-4.95a.77.77,0,0,1,1.24-.19s5.19,4.75,11.11,4.4c4.42-.27,6.49-2,6.49-4.14,0-6.5-21.5-2-21.5-16,0-6.22,5.38-11.37,14.17-11.37,5.6,0,11.52,3.88,11.52,3.88a1.07,1.07,0,0,1,.33,1.41Z"/><path class="cls-3" d="M568.8,76.71c0-6.1,4.62-10,10.29-10A8.74,8.74,0,0,1,586.18,70a.5.5,0,0,1-.13.7l-2.32,1.58a.63.63,0,0,1-.77-.07,6.54,6.54,0,0,0-3.87-1.84,6.33,6.33,0,0,0,0,12.66,6.41,6.41,0,0,0,4.07-1.47V79.75a.5.5,0,0,0-.5-.5h-4.09a.5.5,0,0,1-.5-.5V76.17a.5.5,0,0,1,.5-.5h8.19a.5.5,0,0,1,.5.5v6.4a1.57,1.57,0,0,1-.32.88,10.74,10.74,0,0,1-7.85,3.23C573.42,86.68,568.8,82.78,568.8,76.71Z"/><path class="cls-3" d="M455.6,67.55c.14-.24,0-.43-.25-.43h-17c-.28,0-.39.2-.25.43l1.58,2.73a1,1,0,0,0,.75.43h3.89a.5.5,0,0,1,.5.5V85.8a.5.5,0,0,0,.5.5h3.11a.5.5,0,0,0,.5-.5V71.21a.5.5,0,0,1,.5-.5h3.89a1,1,0,0,0,.75-.43Z"/><path class="cls-3" d="M219.65,86.38a.5.5,0,0,1-.5-.5v-13c0-.28-.08-.29-.18,0l-5.09,13a.79.79,0,0,1-.68.47h-.8a.79.79,0,0,1-.68-.47l-5.09-13c-.1-.26-.18-.24-.18,0v13a.5.5,0,0,1-.5.5h-3.12a.5.5,0,0,1-.5-.5V67.54a.5.5,0,0,1,.5-.5h4.77a.79.79,0,0,1,.68.47l4.34,11.16c.1.26.26.26.36,0l4.34-11.16A.79.79,0,0,1,218,67h4.8a.5.5,0,0,1,.5.5V85.88a.5.5,0,0,1-.5.5Z"/><path class="cls-3" d="M268.87,86.38a.77.77,0,0,1-.67-.47l-.87-2.34a.77.77,0,0,0-.67-.47h-7.3a.77.77,0,0,0-.67.47l-.87,2.34a.77.77,0,0,1-.67.47h-3.67a.32.32,0,0,1-.32-.47l7.1-18.41a.79.79,0,0,1,.68-.47h4.16a.79.79,0,0,1,.68.47l7.1,18.41a.32.32,0,0,1-.32.47Zm-5.7-14.76c-.09-.26-.25-.26-.34,0L260.15,79a.33.33,0,0,0,.33.47h5a.33.33,0,0,0,.33-.47Z"/><path class="cls-3" d="M314.13,86.38a.94.94,0,0,1-.74-.44l-3.32-6a.94.94,0,0,0-.74-.44h-2a.5.5,0,0,0-.5.5v5.88a.5.5,0,0,1-.5.5H303.2a.5.5,0,0,1-.5-.5V67.54a.5.5,0,0,1,.5-.5h9.05s6,0,6,6.24c0,5.45-3.76,5.71-3.76,5.71a.28.28,0,0,0-.24.46L318.13,86c.14.24,0,.43-.24.43ZM314,73.24a2.43,2.43,0,0,0-2.37-2.57h-4.35a.5.5,0,0,0-.5.5v4.22a.5.5,0,0,0,.5.5h4.35A2.41,2.41,0,0,0,314,73.24Z"/><path class="cls-3" d="M361.2,86.38a1.13,1.13,0,0,1-.8-.4l-5.26-7a.38.38,0,0,0-.62,0l-.87,1.06a1.62,1.62,0,0,0-.32.89v4.95a.5.5,0,0,1-.5.5h-3.12a.5.5,0,0,1-.5-.5V67.54a.5.5,0,0,1,.5-.5h3.12a.5.5,0,0,1,.5.5v7.62c0,.28.14.32.31.11l6.22-7.83a1.18,1.18,0,0,1,.81-.39h4.08c.28,0,.35.17.18.38l-7,8.31a.63.63,0,0,0,0,.77L365.46,86c.17.21.09.39-.19.39Z"/><path class="cls-3" d="M485.55,86.38a.5.5,0,0,1-.5-.5V67.54a.5.5,0,0,1,.5-.5h3.12a.5.5,0,0,1,.5.5V85.88a.5.5,0,0,1-.5.5Z"/><path class="cls-3" d="M534.71,86.38a1.11,1.11,0,0,1-.8-.4l-8.63-11.81c-.16-.22-.3-.18-.3.1V85.88a.5.5,0,0,1-.5.5h-3.12a.5.5,0,0,1-.5-.5V67.54a.5.5,0,0,1,.5-.5h3.24a1.12,1.12,0,0,1,.8.4l8.37,11.35c.16.22.3.18.3-.1V67.54a.5.5,0,0,1,.5-.5h3.12a.5.5,0,0,1,.5.5V85.88a.5.5,0,0,1-.5.5Z"/><path class="cls-3" d="M409.61,83.21c.14-.25,0-.45-.26-.45H400.3a.52.52,0,0,1-.52-.52V78.87a.52.52,0,0,1,.52-.52h3.06a1,1,0,0,0,.78-.45l1.58-2.73c.14-.25,0-.45-.26-.45H400.3a.52.52,0,0,1-.52-.52v-3a.52.52,0,0,1,.52-.52h7.5a1,1,0,0,0,.78-.45l1.58-2.73c.14-.25,0-.45-.26-.45H396.18a.52.52,0,0,0-.52.52V85.87a.52.52,0,0,0,.52.52h11.08a1,1,0,0,0,.78-.45Z"/></svg>