<svg id="Layer_1" data-name="Layer 1" xmlns="http://www.w3.org/2000/svg" viewBox="0 0 707.19 216.13"><defs><style>.cls-1{fill:#e53b88;}.cls-2{fill:#6b3081;}.cls-3{fill:#32323c;}</style></defs><title>new_vista_logo</title><path class="cls-1" d="M222.41,82.47a1.31,1.31,0,0,0,2.49,0l11.38-19.71c.68-1.19.13-2.16-1.24-2.16H212.27c-1.37,0-1.93,1-1.24,2.16Z"/><path class="cls-1" d="M201.6,118.5a1.32,1.32,0,0,0,2.49,0l11.38-19.71a4.78,4.78,0,0,0,0-4.31L197.15,62.76a4.78,4.78,0,0,0-3.73-2.16H170.66c-1.37,0-1.93,1-1.24,2.16Z"/><path class="cls-1" d="M155.55,62.76a4.78,4.78,0,0,0-3.73-2.16H129.09c-1.37,0-1.93,1-1.25,2.16l53,91.75a1.32,1.32,0,0,0,2.49,0l11.37-19.69a4.79,4.79,0,0,0,0-4.31Z"/><path class="cls-2" d="M141.68,154.51c-.69,1.19-.12,2.15,1.24,2.15h22.76c1.37,0,1.93-1,1.24-2.15L155.55,134.8a1.32,1.32,0,0,0-2.49,0Z"/><path class="cls-2" d="M100.08,154.51c-.69,1.19-.12,2.15,1.24,2.15h22.76a4.78,4.78,0,0,0,3.73-2.15l18.32-31.72a4.79,4.79,0,0,0,0-4.31L134.75,98.76a1.32,1.32,0,0,0-2.49,0Z"/><path class="cls-2" d="M125.33,86.76a4.8,4.8,0,0,0,0-4.31L114,62.76a1.31,1.31,0,0,0-2.49,0l-53,91.75c-.69,1.19-.12,2.15,1.24,2.15H82.48a4.78,4.78,0,0,0,3.73-2.15Z"/><path class="cls-3" d="M287.17,107.69a2.22,2.22,0,0,1-1.59-.81L269,84.14c-.32-.44-.59-.36-.59.19v22.36a1,1,0,0,1-1,1h-6a1,1,0,0,1-1-1V71.34a1,1,0,0,1,1-1h6.18a2.23,2.23,0,0,1,1.59.8L285.3,93c.33.44.59.35.59-.2V71.34a1,1,0,0,1,1-1h6a1,1,0,0,1,1,1v35.35a1,1,0,0,1-1,1Z"/><path class="cls-3" d="M387.84,107.69a1.36,1.36,0,0,1-1.25-1L380.54,83c-.14-.53-.36-.53-.49,0l-6,23.71a1.36,1.36,0,0,1-1.25,1h-6.46a1.41,1.41,0,0,1-1.28-1L354.92,71.3a.71.71,0,0,1,.72-1h6.9a1.34,1.34,0,0,1,1.24,1l6.08,25c.13.54.35.54.49,0L377,71.31a1.37,1.37,0,0,1,1.26-1h4.21a1.37,1.37,0,0,1,1.25,1l6.55,25.06c.14.53.36.53.49,0l6.08-25a1.34,1.34,0,0,1,1.24-1h6.9a.72.72,0,0,1,.73,1l-10.09,35.43a1.41,1.41,0,0,1-1.27,1Z"/><path class="cls-3" d="M458,107.69a1.57,1.57,0,0,1-1.36-.93L442.92,71.27a.64.64,0,0,1,.64-.93h7a1.54,1.54,0,0,1,1.34.94l9.68,26.79c.19.52.49.52.68,0L472,71.28a1.53,1.53,0,0,1,1.34-.94h7a.64.64,0,0,1,.64.93l-13.67,35.48a1.57,1.57,0,0,1-1.36.93Z"/><path class="cls-3" d="M499,107.69a1,1,0,0,1-1-1V71.34a1,1,0,0,1,1-1h6a1,1,0,0,1,1,1v35.35a1,1,0,0,1-1,1Z"/><path class="cls-3" d="M637.62,107.69a1.55,1.55,0,0,1-1.35-.94l-1.65-4.45a1.55,1.55,0,0,0-1.35-.94h-14a1.55,1.55,0,0,0-1.35.94l-1.65,4.45a1.55,1.55,0,0,1-1.35.94h-7a.64.64,0,0,1-.64-.93l13.67-35.48a1.57,1.57,0,0,1,1.36-.93h8a1.57,1.57,0,0,1,1.36.93l13.67,35.48a.64.64,0,0,1-.64.93Zm-11-28.46c-.19-.52-.49-.52-.68,0l-5.14,14.19a.66.66,0,0,0,.66.94h9.65a.66.66,0,0,0,.66-.94Z"/><path class="cls-3" d="M602.3,71.2c.28-.48.05-.87-.5-.87H568.66c-.55,0-.78.39-.5.87l3,5.27a1.92,1.92,0,0,0,1.5.87h7.53a1,1,0,0,1,1,1v28.35a1,1,0,0,0,1,1h6a1,1,0,0,0,1-1V78.34a1,1,0,0,1,1-1h7.52a1.92,1.92,0,0,0,1.5-.87Z"/><path class="cls-3" d="M342.37,101.56c.28-.48,0-.87-.5-.87H324.39a1,1,0,0,1-1-1V93.18a1,1,0,0,1,1-1h5.91a1.92,1.92,0,0,0,1.5-.87l3-5.27c.28-.48,0-.87-.5-.87h-9.95a1,1,0,0,1-1-1V78.34a1,1,0,0,1,1-1h14.47a1.92,1.92,0,0,0,1.5-.87l3-5.27c.28-.48,0-.87-.5-.87H316.44a1,1,0,0,0-1,1v35.35a1,1,0,0,0,1,1h21.39a1.92,1.92,0,0,0,1.5-.87Z"/><path class="cls-3" d="M548.44,79.83a.9.9,0,0,1-1.32.29s-4.69-3.29-8.5-3.29c-3.36,0-5.26,1.46-5.26,3.7,0,5.88,21.45,1.9,21.45,15.85,0,6.83-4.93,12-15,12-7.58,0-14.55-4.88-14.55-4.88A1.11,1.11,0,0,1,525,102l2.86-4.95a.77.77,0,0,1,1.24-.19s5.19,4.75,11.11,4.4c4.42-.27,6.49-2,6.49-4.14,0-6.5-21.5-2-21.5-16,0-6.22,5.38-11.37,14.17-11.37,5.6,0,11.52,3.88,11.52,3.88a1.07,1.07,0,0,1,.33,1.41Z"/><path class="cls-3" d="M627.06,137.31c0-6.1,4.62-10,10.29-10a8.74,8.74,0,0,1,7.09,3.27.5.5,0,0,1-.13.7L642,132.89a.63.63,0,0,1-.77-.07,6.54,6.54,0,0,0-3.87-1.84,6.33,6.33,0,0,0,0,12.66,6.41,6.41,0,0,0,4.07-1.47v-1.81a.5.5,0,0,0-.5-.5h-4.09a.5.5,0,0,1-.5-.5v-2.58a.5.5,0,0,1,.5-.5H645a.5.5,0,0,1,.5.5v6.4a1.57,1.57,0,0,1-.32.88,10.74,10.74,0,0,1-7.85,3.23C631.68,147.28,627.06,143.38,627.06,137.31Z"/><path class="cls-3" d="M513.68,128.16c.14-.24,0-.43-.25-.43h-17c-.28,0-.39.2-.25.43l1.58,2.73a1,1,0,0,0,.75.43h3.89a.5.5,0,0,1,.5.5V146.4a.5.5,0,0,0,.5.5h3.11a.5.5,0,0,0,.5-.5V131.82a.5.5,0,0,1,.5-.5h3.89a1,1,0,0,0,.75-.43Z"/><path class="cls-3" d="M277.73,147a.5.5,0,0,1-.5-.5v-13c0-.28-.08-.29-.18,0l-5.09,13a.79.79,0,0,1-.68.47h-.8a.79.79,0,0,1-.68-.47l-5.09-13c-.1-.26-.18-.24-.18,0v13a.5.5,0,0,1-.5.5h-3.12a.5.5,0,0,1-.5-.5V128.14a.5.5,0,0,1,.5-.5h4.77a.79.79,0,0,1,.68.47l4.34,11.16c.1.26.26.26.36,0l4.34-11.16a.79.79,0,0,1,.68-.47h4.8a.5.5,0,0,1,.5.5v18.35a.5.5,0,0,1-.5.5Z"/><path class="cls-3" d="M326.95,147a.77.77,0,0,1-.67-.47l-.87-2.34a.77.77,0,0,0-.67-.47h-7.3a.77.77,0,0,0-.67.47l-.87,2.34a.77.77,0,0,1-.67.47h-3.67a.32.32,0,0,1-.32-.47l7.1-18.41a.79.79,0,0,1,.68-.47h4.16a.79.79,0,0,1,.68.47l7.1,18.41a.32.32,0,0,1-.32.47Zm-5.7-14.76c-.09-.26-.25-.26-.34,0l-2.68,7.38a.33.33,0,0,0,.33.47h5a.33.33,0,0,0,.33-.47Z"/><path class="cls-3" d="M372.21,147a.94.94,0,0,1-.74-.44l-3.32-6a.94.94,0,0,0-.74-.44h-2a.5.5,0,0,0-.5.5v5.88a.5.5,0,0,1-.5.5h-3.12a.5.5,0,0,1-.5-.5V128.14a.5.5,0,0,1,.5-.5h9.05s6,0,6,6.24c0,5.45-3.76,5.71-3.76,5.71a.28.28,0,0,0-.24.46l3.87,6.51c.14.24,0,.43-.24.43Zm-.09-13.14a2.43,2.43,0,0,0-2.37-2.57H365.4a.5.5,0,0,0-.5.5V136a.5.5,0,0,0,.5.5h4.35A2.41,2.41,0,0,0,372.12,133.84Z"/><path class="cls-3" d="M419.28,147a1.13,1.13,0,0,1-.8-.4l-5.26-7a.38.38,0,0,0-.62,0l-.87,1.06a1.62,1.62,0,0,0-.32.89v4.95a.5.5,0,0,1-.5.5H407.8a.5.5,0,0,1-.5-.5V128.14a.5.5,0,0,1,.5-.5h3.12a.5.5,0,0,1,.5.5v7.62c0,.28.14.32.31.11l6.22-7.83a1.18,1.18,0,0,1,.81-.39h4.08c.27,0,.35.17.18.38l-7,8.31a.63.63,0,0,0,0,.77l7.58,9.49c.17.21.09.39-.19.39Z"/><path class="cls-3" d="M543.63,147a.5.5,0,0,1-.5-.5V128.14a.5.5,0,0,1,.5-.5h3.12a.5.5,0,0,1,.5.5v18.35a.5.5,0,0,1-.5.5Z"/><path class="cls-3" d="M592.79,147a1.11,1.11,0,0,1-.8-.4l-8.63-11.81c-.16-.22-.3-.18-.3.1v11.62a.5.5,0,0,1-.5.5h-3.12a.5.5,0,0,1-.5-.5V128.14a.5.5,0,0,1,.5-.5h3.24a1.12,1.12,0,0,1,.8.4l8.37,11.35c.16.22.3.18.3-.1V128.14a.5.5,0,0,1,.5-.5h3.12a.5.5,0,0,1,.5.5v18.35a.5.5,0,0,1-.5.5Z"/><path class="cls-3" d="M467.7,143.81c.14-.25,0-.45-.26-.45h-9.05a.52.52,0,0,1-.52-.52v-3.37a.52.52,0,0,1,.52-.52h3.06a1,1,0,0,0,.78-.45l1.58-2.73c.14-.25,0-.45-.26-.45h-5.15a.52.52,0,0,1-.52-.52v-3a.52.52,0,0,1,.52-.52h7.5a1,1,0,0,0,.78-.45l1.58-2.73c.14-.25,0-.45-.26-.45H454.26a.52.52,0,0,0-.52.52v18.31a.52.52,0,0,0,.52.52h11.08a1,1,0,0,0,.78-.45Z"/></svg>